<svg width="20" height="16" viewBox="0 0 20 16" fill="none" xmlns="http://www.w3.org/2000/svg">
<path d="M2 1.74828L8.08287 6.29979C8.77048 6.81429 9.11428 7.07154 9.49174 7.17072C9.82493 7.25827 10.1751 7.25827 10.5083 7.17072C10.8857 7.07154 11.2295 6.81429 11.9171 6.29979L18 1.74828M1.00003 4.19868C1.00002 6.44631 1.00002 9.45784 1.00001 11.8005C1.00001 12.9203 1.00001 13.4802 1.21799 13.908C1.40974 14.2843 1.7157 14.5903 2.09203 14.782C2.51985 15 3.07984 15 4.19981 15C8.0493 15 12.7485 15 15.8044 15C16.9216 15 17.4802 15 17.908 14.782C18.2843 14.5903 18.5903 14.2843 18.782 13.908C19 13.4802 19 12.9207 19 11.8017C19 9.30597 19 6.37595 19 4.19767C19 3.07913 19 2.51987 18.782 2.09204C18.5903 1.71572 18.2843 1.40976 17.908 1.21801C17.4802 1.00003 16.9201 1.00002 15.8 1.00002C11.9333 0.999999 8.06666 0.99999 4.19999 1.00002C3.0799 1.00003 2.51986 1.00003 2.09204 1.21802C1.71572 1.40976 1.40976 1.71573 1.21801 2.09205C1.00003 2.51987 1.00003 3.07947 1.00003 4.19868Z" stroke="#F4FC54" stroke-width="1.5" stroke-linecap="round" stroke-linejoin="round"/>
</svg>
